<?xml version="1.0" encoding="utf-8"?>
<!-- Generator: Adobe Illustrator 24.0.2, SVG Export Plug-In . SVG Version: 6.00 Build 0)  -->
<svg version="1.1" id="ac1eb871-932a-433c-8a7b-566e1262461f"
	 xmlns="http://www.w3.org/2000/svg" xmlns:xlink="http://www.w3.org/1999/xlink" x="0px" y="0px" viewBox="0 0 863.9 364.2"
	 style="enable-background:new 0 0 863.9 364.2;" xml:space="preserve">
<style type="text/css">
	.st0{fill:#F0F0F0;}
	.st1{fill:#FFFFFF;}
	.st2{fill:#3F3D56;}
	.st3{fill:#F7BB16;}
	.st4{fill:#333333;}
	.st5{fill:#CACACA;}
</style>
<polygon class="st0" points="312,119.7 0,119.7 0,222.2 11.8,222.2 11.8,248.9 38.6,222.2 312,222.2 "/>
<rect x="8.7" y="129.7" class="st1" width="294.6" height="81.9"/>
<rect x="34.7" y="154.4" class="st0" width="141.9" height="4.3"/>
<rect x="34.7" y="169.3" class="st0" width="247.2" height="4.3"/>
<rect x="34.7" y="184.2" class="st0" width="247" height="4.3"/>
<path class="st0" d="M524,351.1c0,0,1.5-31.2,32-27.5"/>
<ellipse transform="matrix(0.1602 -0.9871 0.9871 0.1602 130.6496 765.8819)" class="st0" cx="515.4" cy="306.2" rx="15.3" ry="15.3"/>
<rect x="512.9" y="331.9" class="st0" width="4.3" height="30.1"/>
<circle cx="666.9" cy="180.1" r="123.3"/>
<path class="st1" d="M589.3,190c11.6-13.8,32.1-15.7,46-4.1c1.5,1.2,2.9,2.6,4.1,4.1c14.5-13.8,15-36.8,1.2-51.3
	c-13.8-14.5-36.8-15-51.3-1.2s-15,36.8-1.2,51.3C588.5,189.2,588.9,189.6,589.3,190z"/>
<path class="st1" d="M687.2,190c11.6-13.8,32.1-15.7,46-4.1c1.5,1.2,2.9,2.6,4.1,4.1c14.5-13.8,15-36.8,1.2-51.3
	c-13.8-14.5-36.8-15-51.3-1.2s-15,36.8-1.2,51.3l0,0C686.4,189.2,686.8,189.6,687.2,190z"/>
<circle class="st2" cx="602" cy="151.4" r="12.5"/>
<circle class="st2" cx="699.9" cy="151.4" r="12.5"/>
<circle class="st3" cx="578.1" cy="210.9" r="14.5"/>
<circle class="st3" cx="744.9" cy="210.9" r="14.5"/>
<polygon class="st3" points="661.5,181.9 650.6,229 668.7,210.9 "/>
<polygon points="717.4,363.2 705,352.8 705.3,363.2 701.5,363.2 701.2,352.2 684.5,363.2 677.5,363.2 701.1,347.7 700.1,315.3 
	699.5,290.7 703.3,290.6 704,315.3 704.9,347.7 723.4,363.2 "/>
<polygon points="659.4,363.2 647,352.8 647.3,363.2 643.5,363.2 643.2,352.2 626.5,363.2 619.5,363.2 643,347.7 642.1,315.3 
	641.4,290.7 645.3,290.6 646,315.3 646.9,347.7 665.3,363.2 "/>
<path class="st4" d="M668.7,47.7c-3.4,0-6.4,2.6-8.4,6.7c-1.8-6.1-5.5-10.3-9.8-10.3c-0.3,0-0.6,0.1-0.9,0.1c-1.7-6.5-5.5-11-10-11
	c-6,0-10.9,8.1-10.9,18.1s4.9,18.1,10.9,18.1c0.3,0,0.6-0.1,0.9-0.1c1.7,6.5,5.5,11,10,11c3.4,0,6.4-2.6,8.4-6.7
	c1.8,6.1,5.5,10.3,9.8,10.3c6,0,10.9-8.1,10.9-18.1S674.8,47.7,668.7,47.7z"/>
<path d="M550.7,183.9l-67.9-11c-3.4-0.6-6.9-1.1-10.3-0.6s-6.9,2.2-8.6,5.2c-2.4,4.1-1,9.4,3.1,11.8c1.8,1.1,4,1.4,6,1
	c-3.7-0.1-7.6-0.2-10.9,1.5s-5.6,5.9-4,9.2c0.5,0.9,1.1,1.7,1.9,2.4c5.1,4.5,12.3,5.8,18.5,3.1c-2.5,3.6-7.5,4.1-11.8,4.9
	s-9.3,3.3-9.4,7.6c-0.2,4.9,5.7,7.5,10.5,8.5c25.7,5.3,52.3,3.1,76.8-6.3c2.8-0.9,5.4-2.3,7.7-4c7.7-5.8,9.2-16.8,3.3-24.4
	c-2.6-3.4-6.3-5.7-10.4-6.5"/>
<path d="M843.8,239.6c-11.2-23.7-29-43.7-51.2-57.6c-2.4-1.6-5-2.9-7.8-3.8c-9.3-2.6-18.9,2.7-21.5,12c-1.2,4.1-0.8,8.4,1,12.2
	l-5.3-2.7c10.7,20.3,21.3,40.6,32,60.9c1.6,3.1,3.3,6.2,5.7,8.6s5.9,4.2,9.3,3.8c4.7-0.5,8.1-4.8,7.6-9.5c-0.1-1-0.4-1.9-0.8-2.8
	c1.5,2.1,3.5,3.8,5.8,5.1c3.3,1.6,8.1,1,9.8-2.3c0.4-0.9,0.7-2,0.8-3c0.6-6.8-2.8-13.3-8.6-16.7c4.4-0.2,7.8,3.5,11,6.4
	c3.2,2.9,8.2,5.4,11.8,2.9C847.4,250.3,845.9,244,843.8,239.6z"/>
<polygon class="st5" points="55.8,0 506,0 506,147.8 488.9,147.8 488.9,186.5 450.3,147.8 55.8,147.8 "/>
<rect x="68.3" y="14.4" class="st1" width="425.2" height="118.2"/>
<rect x="102.5" y="48.9" class="st3" width="204.7" height="6.2"/>
<rect x="102.5" y="70.4" class="st3" width="356.8" height="6.2"/>
<rect x="102.5" y="91.9" class="st3" width="356.5" height="6.2"/>
<path class="st5" d="M862.9,364.2h-381c-0.6,0-1-0.4-1-1s0.4-1,1-1h381c0.6,0,1,0.4,1,1S863.5,364.2,862.9,364.2z"/>
</svg>
