<?xml version="1.0" encoding="utf-8"?>
<!-- Generator: Adobe Illustrator 24.0.2, SVG Export Plug-In . SVG Version: 6.00 Build 0)  -->
<svg version="1.1" id="ab52c5b6-5573-49f0-a2fe-42cb4f9f7e33"
	 xmlns="http://www.w3.org/2000/svg" xmlns:xlink="http://www.w3.org/1999/xlink" x="0px" y="0px" viewBox="0 0 642 598"
	 style="enable-background:new 0 0 642 598;" xml:space="preserve">
<style type="text/css">
	.st0{fill:#E6E6E6;}
	.st1{fill:#F7BB16;}
	.st2{fill:#CCCCCC;}
	.st3{fill:#2F2E41;}
	.st4{opacity:0.1;enable-background:new    ;}
	.st5{fill:#C41721;}
	.st6{fill:#3F3D56;}
</style>
<path class="st0" d="M328.6,591.7c-3.1,0-6.3,0-9.4-0.1l0.1-2.2c4.4,0.1,9,0.2,13.4,0.1l0,2.2C331.4,591.6,330,591.7,328.6,591.7z
	 M346.3,591.1l-0.1-2.2c4.4-0.3,9-0.6,13.4-1.1l0.2,2.2C355.4,590.5,350.8,590.9,346.3,591.1L346.3,591.1z M305.7,590.8
	c-4.5-0.3-9-0.8-13.5-1.3l0.3-2.2c4.4,0.5,8.9,1,13.4,1.3L305.7,590.8z M373.3,588.3l-0.3-2.2c4.4-0.7,8.9-1.4,13.2-2.3l0.4,2.2
	C382.2,586.9,377.7,587.6,373.3,588.3L373.3,588.3z M278.9,587.5c-4.4-0.8-8.9-1.6-13.3-2.6l0.5-2.2c4.4,0.9,8.8,1.8,13.2,2.5
	L278.9,587.5z M399.8,583l-0.5-2.2c4.3-1.1,8.7-2.3,13-3.5l0.6,2.2C408.6,580.8,404.2,582,399.8,583L399.8,583z M252.4,581.7
	c-4.3-1.2-8.7-2.4-13-3.8l0.7-2.1c4.2,1.3,8.6,2.6,12.9,3.8L252.4,581.7z M425.8,575.3l-0.7-2.1c4.2-1.5,8.4-3,12.6-4.7l0.8,2.1
	C434.3,572.3,430,573.9,425.8,575.3L425.8,575.3z M226.5,573.6c-4.2-1.6-8.5-3.2-12.6-5l0.9-2.1c4.1,1.7,8.3,3.4,12.5,4.9
	L226.5,573.6z M450.9,565.3l-0.9-2c4-1.8,8.1-3.8,12.1-5.8l1,2C459.1,561.5,455,563.4,450.9,565.3L450.9,565.3z M201.5,563
	c-4.1-1.9-8.1-4-12.1-6.1l1.1-2c3.9,2.1,8,4.2,12,6.1L201.5,563z M475,553l-1.1-2c3.9-2.2,7.8-4.5,11.5-6.9l1.2,1.9
	C482.8,548.4,478.9,550.7,475,553z M177.6,550.3c-3.9-2.3-7.7-4.7-11.5-7.2l1.2-1.9c3.7,2.5,7.6,4.9,11.4,7.1L177.6,550.3z
	 M497.8,538.5l-1.3-1.8c3.7-2.6,7.3-5.2,10.8-7.9l1.4,1.8C505.2,533.3,501.5,535.9,497.8,538.5z M155,535.3
	c-3.6-2.6-7.3-5.4-10.8-8.2l1.4-1.8c3.5,2.8,7.1,5.5,10.7,8.1L155,535.3z M519.3,522l-1.4-1.7c3.4-2.9,6.8-5.9,10.1-8.9l1.5,1.7
	C526.1,516.1,522.7,519.1,519.3,522L519.3,522z M133.8,518.4c-3.4-3-6.7-6-10-9.2l1.6-1.6c3.2,3.1,6.6,6.1,9.9,9.1L133.8,518.4z
	 M539.2,503.6l-1.6-1.6c3.1-3.2,6.2-6.5,9.2-9.8l1.7,1.5C545.5,497.1,542.3,500.4,539.2,503.6L539.2,503.6z M114.2,499.7
	c-3.1-3.3-6.2-6.6-9.1-10l1.7-1.5c2.9,3.4,6,6.7,9,9.9L114.2,499.7z M557.3,483.5l-1.7-1.4c2.8-3.5,5.6-7,8.3-10.6l1.8,1.3
	C563,476.4,560.2,480,557.3,483.5z M96.5,479.2c-2.8-3.5-5.5-7.2-8.2-10.8l1.8-1.3c2.6,3.6,5.3,7.2,8.1,10.7L96.5,479.2z
	 M573.5,461.8l-1.9-1.3c2.5-3.7,5-7.5,7.3-11.3l1.9,1.2C578.5,454.3,576.1,458.1,573.5,461.8z M80.7,457.3
	c-2.5-3.8-4.9-7.6-7.1-11.5l1.9-1.1c2.3,3.8,4.6,7.7,7.1,11.4L80.7,457.3z M587.7,438.7l-2-1.1c2.2-3.9,4.3-7.9,6.2-11.9l2,1
	C592,430.7,589.9,434.8,587.7,438.7L587.7,438.7z M67,434c-2.1-4-4.1-8-6-12.1l2-1c1.9,4,3.9,8.1,6,12L67,434z M599.7,414.4
	l-2.1-0.9c1.8-4.1,3.5-8.3,5.1-12.5l2.1,0.8C603.3,406,601.5,410.3,599.7,414.4L599.7,414.4z M55.4,409.5c-1.7-4.1-3.4-8.4-4.9-12.6
	l2.1-0.8c1.5,4.2,3.2,8.4,4.9,12.5L55.4,409.5z M609.5,389l-2.1-0.7c1.4-4.2,2.7-8.6,3.9-12.9l2.2,0.6
	C612.2,380.4,610.9,384.8,609.5,389L609.5,389z M46.2,384.1c-1.3-4.3-2.6-8.7-3.7-13l2.2-0.6c1.1,4.3,2.4,8.7,3.7,12.9L46.2,384.1z
	 M616.8,363l-2.2-0.5c1-4.3,1.9-8.8,2.7-13.2l2.2,0.4C618.7,354.1,617.8,358.6,616.8,363L616.8,363z M39.3,357.9
	c-0.9-4.4-1.8-8.9-2.5-13.3l2.2-0.4c0.7,4.4,1.6,8.8,2.5,13.2L39.3,357.9z M621.7,336.3l-2.2-0.3c0.6-4.4,1.1-8.9,1.5-13.4l2.2,0.2
	C622.8,327.4,622.3,331.9,621.7,336.3L621.7,336.3z M34.9,331.2c-0.5-4.5-1-9-1.3-13.5l2.2-0.2c0.3,4.5,0.8,9,1.3,13.4L34.9,331.2z
	 M624.1,309.4l-2.2-0.1c0.2-4.5,0.3-9,0.3-13.4h2.2C624.5,300.3,624.3,304.9,624.1,309.4L624.1,309.4z M32.9,304.2
	c-0.1-2.8-0.1-5.6-0.1-8.4c0-1.7,0-3.5,0-5.2l2.2,0c0,1.7,0,3.4,0,5.1c0,2.8,0,5.6,0.1,8.3L32.9,304.2z M622.2,292.7
	c0-4.5-0.2-9-0.4-13.4l2.2-0.1c0.2,4.5,0.4,9,0.4,13.5L622.2,292.7z M35.6,277.3l-2.2-0.1c0.3-4.5,0.7-9,1.2-13.5l2.2,0.2
	C36.3,268.3,35.9,272.8,35.6,277.3L35.6,277.3z M620.7,265.9c-0.4-4.4-1-8.9-1.7-13.3l2.2-0.3c0.7,4.4,1.2,9,1.7,13.4L620.7,265.9z
	 M38.5,250.5l-2.2-0.3c0.7-4.5,1.5-8.9,2.4-13.3l2.2,0.4C40,241.7,39.2,246.1,38.5,250.5z M616.8,239.3c-0.9-4.4-1.8-8.8-2.9-13.1
	l2.2-0.5c1.1,4.4,2,8.8,2.9,13.2L616.8,239.3z M43.8,224.2l-2.2-0.5c1.1-4.4,2.3-8.8,3.6-13.1l2.2,0.6
	C46.1,215.5,44.9,219.9,43.8,224.2z M610.4,213.2c-1.3-4.3-2.6-8.6-4.1-12.8l2.1-0.7c1.5,4.2,2.8,8.6,4.1,12.9L610.4,213.2z
	 M51.6,198.4l-2.1-0.7c1.5-4.3,3.1-8.5,4.8-12.7l2.1,0.8C54.7,190,53.1,194.2,51.6,198.4L51.6,198.4z M601.7,187.7
	c-1.6-4.1-3.4-8.3-5.2-12.4l2.1-0.9c1.8,4.1,3.6,8.3,5.3,12.4L601.7,187.7z M61.7,173.5l-2-0.9c1.9-4.1,3.9-8.2,5.9-12.2l2,1
	C65.5,165.3,63.6,169.4,61.7,173.5z M590.7,163.3c-2-4-4.1-8-6.3-11.8l2-1.1c2.2,3.9,4.4,7.9,6.4,11.9L590.7,163.3z M74,149.5
	l-1.9-1.1c2.2-3.9,4.6-7.8,7-11.6L81,138C78.6,141.8,76.3,145.7,74,149.5L74,149.5z M577.4,139.9c-2.4-3.8-4.9-7.6-7.4-11.2l1.8-1.3
	c2.6,3.7,5.1,7.5,7.5,11.3L577.4,139.9z M88.5,126.9l-1.8-1.3c2.6-3.7,5.3-7.3,8.1-10.9l1.8,1.4C93.8,119.6,91.1,123.2,88.5,126.9z
	 M562.1,117.9c-2.7-3.6-5.5-7.1-8.4-10.5l1.7-1.4c2.9,3.4,5.7,7,8.5,10.6L562.1,117.9z M105,105.6l-1.7-1.5c2.9-3.4,5.9-6.8,9-10.1
	l1.6,1.5C110.9,98.8,107.9,102.2,105,105.6z M544.9,97.3c-3-3.3-6.2-6.5-9.3-9.7l1.6-1.6c3.2,3.2,6.3,6.4,9.4,9.8L544.9,97.3z
	 M123.3,86l-1.6-1.6c3.2-3.1,6.5-6.3,9.9-9.2l1.5,1.7C129.8,79.7,126.5,82.8,123.3,86L123.3,86z M525.8,78.3c-3.3-3-6.7-6-10.2-8.8
	l1.4-1.7c3.5,2.9,6.9,5.8,10.2,8.9L525.8,78.3z M143.4,68.1l-1.4-1.7c3.5-2.8,7.1-5.6,10.7-8.3l1.3,1.8
	C150.4,62.5,146.8,65.2,143.4,68.1z M505.1,61.2c-3.6-2.7-7.2-5.3-10.9-7.8l1.3-1.9c3.7,2.5,7.4,5.2,11,7.9L505.1,61.2z M165,52.1
	l-1.3-1.9c3.7-2.5,7.6-5,11.4-7.3l1.2,1.9C172.5,47.1,168.7,49.6,165,52.1z M482.9,46c-3.8-2.4-7.7-4.6-11.6-6.8l1.1-2
	c3.9,2.2,7.9,4.5,11.7,6.9L482.9,46z M187.9,38.1l-1.1-2c3.9-2.2,8-4.2,12-6.2l1,2C195.8,33.9,191.8,36,187.9,38.1L187.9,38.1z
	 M459.4,32.9c-4-2-8.1-3.9-12.2-5.7l0.9-2.1c4.1,1.8,8.2,3.8,12.3,5.8L459.4,32.9z M212,26.3l-0.9-2.1c4.1-1.8,8.3-3.5,12.5-5.1
	l0.8,2.1C220.2,22.9,216.1,24.6,212,26.3L212,26.3z M434.8,22c-4.2-1.6-8.4-3.2-12.7-4.6l0.7-2.1c4.3,1.4,8.6,3,12.8,4.6L434.8,22z
	 M237.1,16.8l-0.7-2.1c4.3-1.4,8.6-2.7,13-3.9l0.6,2.2C245.6,14.1,241.3,15.4,237.1,16.8L237.1,16.8z M409.2,13.5
	c-4.3-1.2-8.7-2.4-13-3.4l0.5-2.2c4.4,1,8.8,2.2,13.1,3.4L409.2,13.5z M263,9.6l-0.5-2.2c4.4-1,8.8-1.9,13.3-2.7l0.4,2.2
	C271.8,7.7,267.3,8.6,263,9.6L263,9.6z M383.1,7.3c-4.4-0.8-8.8-1.6-13.3-2.2l0.3-2.2c4.5,0.6,9,1.4,13.4,2.2L383.1,7.3z M289.4,4.8
	l-0.3-2.2c4.5-0.6,9-1.1,13.5-1.5l0.2,2.2C298.3,3.8,293.8,4.3,289.4,4.8L289.4,4.8z M356.5,3.6c-4.4-0.4-8.9-0.7-13.4-1l0.1-2.2
	c4.5,0.2,9,0.5,13.5,1L356.5,3.6z M316.2,2.5l-0.1-2.2c4.1-0.2,8.3-0.3,12.5-0.3l1,0l0,2.2l-1,0C324.5,2.3,320.3,2.3,316.2,2.5
	L316.2,2.5z"/>
<path d="M329.3,590.1v-123c0-3.6,2.9-6.5,6.5-6.5h14.8c3.6,0,6.5,2.9,6.5,6.5v123c0,3.6-2.9,6.5-6.5,6.5h-14.8
	C332.2,596.6,329.3,593.7,329.3,590.1z"/>
<path d="M300.1,590.1v-123c0-3.6,2.9-6.5,6.5-6.5h14.8c3.6,0,6.5,2.9,6.5,6.5v123c0,3.6-2.9,6.5-6.5,6.5h-14.8
	C303,596.6,300.1,593.7,300.1,590.1z"/>
<path d="M298.7,426.5h59.8c3.3,0,6,2.7,6,6V500c0,3.3-2.7,6-6,6h-59.8c-3.3,0-6-2.7-6-6v-67.5C292.7,429.2,295.4,426.5,298.7,426.5z
	"/>
<path class="st0" d="M228.1,233.2c0,0-30.2,14-55.7,23.3c-15.8-35.8-38.7-34.4-38.7-34.4l-13.8,9.5l2.5,14.3l-0.7,23.4l-3.6,12.2
	l5.2,0.9l2.9,0.5l0.4-0.4c-0.7,2.9-1,5.9-0.9,8.9l130.8-20.4C256.7,271.1,252.2,250,228.1,233.2z"/>
<path class="st1" d="M198.3,429l-8.8-11.9c-2-2.7-1.4-6.4,1.3-8.4l98.9-73.1c2.7-2,6.4-1.4,8.4,1.3l8.8,11.9c2,2.7,1.4,6.4-1.3,8.4
	l-98.9,73.1C204,432.2,200.3,431.6,198.3,429z"/>
<path class="st1" d="M345,339.7l13-6.9c2.9-1.6,6.6-0.4,8.1,2.5L423.9,444c1.6,2.9,0.4,6.6-2.5,8.1l-13,6.9
	c-2.9,1.6-6.6,0.4-8.1-2.5l-57.7-108.7C341,344.9,342.1,341.3,345,339.7z"/>
<path class="st2" d="M394.6,381.1l-21.3,14.1c-3.3,1.7-7.2,0.8-8.7-2.2l-23.5-44.3c-1.6-2.9-0.2-6.7,3.1-8.4l14.5-7.7
	c3.3-1.7,7.2-0.8,8.7,2.2l30.3,37.9C399.3,375.6,397.9,379.3,394.6,381.1z"/>
<path class="st2" d="M249.5,368.1l13.8,18.4c2.3,2.4,6.1,2.5,8.5,0.3l36.6-34.3c2.4-2.3,2.5-6.1,0.3-8.5l-10.1-10.8
	c-2.3-2.4-6.1-2.5-8.5-0.3l-40.3,26.7C247.4,361.9,247.3,365.7,249.5,368.1L249.5,368.1z"/>
<path class="st2" d="M295.1,331.1h67.1c3.3,0,6,2.7,6,6v142.5c0,3.3-2.7,6-6,6h-67.1c-3.3,0-6-2.7-6-6V337.1
	C289.1,333.7,291.8,331.1,295.1,331.1z"/>
<circle class="st1" cx="328.2" cy="268.2" r="53.5"/>
<path class="st3" d="M334.5,286.1c-3.3-0.1-7.4-0.2-10.6-2.5c-1.9-1.5-3.1-3.7-3.2-6.1c-0.1-1.7,0.6-3.4,1.9-4.5
	c1.7-1.4,4.1-1.7,6.7-1l-2.7-19.7l2-0.3l3.2,23.2l-1.7-0.8c-1.9-0.9-4.6-1.3-6.2,0.1c-0.8,0.7-1.2,1.8-1.2,2.9
	c0.1,1.8,1,3.4,2.4,4.5c2.5,1.8,5.7,2,9.5,2.1L334.5,286.1z"/>
<rect x="305.9" y="254" class="st3" width="10.8" height="2"/>
<rect x="339.9" y="254" class="st3" width="10.8" height="2"/>
<path class="st3" d="M292.9,226.4c-8.7-1-15.4-9.3-16.1-17.7c-0.9-10,5-19.6,13-25.2c8.4-5.9,18.8-8.3,28.9-8.9
	c19.7-1,39.1,5.4,54.3,17.9c7.6,6.3,14.6,14.3,17.3,24c2.3,8.4,0.4,17.9-6.3,23.8c-3.4,2.9-7.8,4.3-12.3,3.8
	c-5.2-0.5-10.1-3.3-14.3-6.3c-8.1-5.9-14.8-14.2-24.8-17.3c-7.3-2.3-16.7-0.3-21.2,6.3c-1,1.5-1.7,3.2-1.9,5c-0.2,0.8,0.3,1.6,1,1.8
	c0.8,0.2,1.6-0.3,1.8-1c1.2-8.3,11.4-11.4,18.5-9.5c10.4,2.8,17.4,12.1,26,18c4.5,3.1,9.6,5.6,15.1,6c4.8,0.4,9.5-1.1,13.2-4.1
	c7.3-5.8,10.1-15.7,8.5-24.6c-1.9-10.4-8.8-19.2-16.5-26.1c-15.5-13.8-35.6-21.2-56.3-20.8c-10.6,0.2-21.6,2.4-30.7,8
	c-8.8,5.4-15.7,14.5-16.6,25c-0.8,9.3,4.2,19,12.7,23c2,1,4.2,1.6,6.4,1.8C294.8,229.6,294.8,226.6,292.9,226.4L292.9,226.4z"/>
<path class="st2" d="M126.2,281.2l6.3-2c0.7-1.3-0.6-0.5,0-1.7c16.1-34.3,1.2-55.3,1.2-55.3l-11.5,7.9c0-0.1-0.1-0.1-0.1-0.2
	c0,0-2-4.5-5.2-1.1c0,0,10,24.3-1.1,54.4l12.9,5.9l5-5.9l0.1-0.6l-8.9-0.8L126.2,281.2z"/>
<path d="M307.3,408.5c-51-11.3-98.5,12.1-98.5,12.1l-0.1-0.1l-18.9-16.9L115.8,283l18,0.1c50.1-29.9,120.6-25.9,120.6-25.9
	C284.8,291.7,307.3,408.5,307.3,408.5z"/>
<path class="st4" d="M208.6,420.5l-18.9-16.9L115.8,283l18,0.1C133.8,283.1,205.7,378,208.6,420.5z"/>
<ellipse transform="matrix(0.956 -0.2932 0.2932 0.956 -81.2032 75.5815)" class="st5" cx="211.5" cy="308.6" rx="29.3" ry="18.6"/>
<path class="st2" d="M59,224.5c-4.1,15.1-18,24.4-18,24.4s-7.3-15.1-3.3-30.1s18-24.4,18-24.4S63.1,209.4,59,224.5z"/>
<path class="st2" d="M22,224.5c4.1,15.1,18,24.4,18,24.4s7.3-15.1,3.3-30.1s-18-24.4-18-24.4S17.9,209.4,22,224.5z"/>
<path d="M27.9,221.3c11.2,10.9,12.5,27.6,12.5,27.6s-16.8-0.9-27.9-11.8S0,209.5,0,209.5S16.8,210.4,27.9,221.3z"/>
<path d="M53,221.3c-11.2,10.9-12.5,27.6-12.5,27.6s16.8-0.9,27.9-11.8S81,209.5,81,209.5S64.2,210.4,53,221.3z"/>
<path d="M620,394.5c-4.1,15.1-18,24.4-18,24.4s-7.3-15.1-3.3-30.1s18-24.4,18-24.4S624.1,379.4,620,394.5z"/>
<path d="M583,394.5c4.1,15.1,18,24.4,18,24.4s7.3-15.1,3.3-30.1c-4.1-15.1-18-24.4-18-24.4S578.9,379.4,583,394.5z"/>
<path class="st1" d="M588.9,391.3c11.2,10.9,12.5,27.6,12.5,27.6s-16.8-0.9-27.9-11.8c-11.2-10.9-12.5-27.6-12.5-27.6
	S577.8,380.4,588.9,391.3z"/>
<path class="st1" d="M614,391.3c-11.2,10.9-12.5,27.6-12.5,27.6s16.8-0.9,27.9-11.8c11.2-10.9,12.5-27.6,12.5-27.6
	S625.2,380.4,614,391.3z"/>
<rect x="214" y="596" class="st6" width="232" height="2"/>
</svg>
