<?xml version="1.0" encoding="utf-8"?>
<!-- Generator: Adobe Illustrator 24.0.2, SVG Export Plug-In . SVG Version: 6.00 Build 0)  -->
<svg version="1.1" id="a728da0d-a6bd-48cc-8386-3b36fd525f7c"
	 xmlns="http://www.w3.org/2000/svg" xmlns:xlink="http://www.w3.org/1999/xlink" x="0px" y="0px" viewBox="0 0 984 393.2"
	 style="enable-background:new 0 0 984 393.2;" xml:space="preserve">
<style type="text/css">
	.st0{fill:#2F2E41;}
	.st1{fill:#C41921;}
	.st2{fill:#3F3D56;}
	.st3{fill:#FFB8B8;}
	.st4{fill:#F8BA17;}
</style>
<path class="st0" d="M825.7,62h61.6V31.3c0-0.3,0-0.5,0-0.8C887.1,13.6,873.4,0,856.5,0c-8.2,0-16.1,3.3-21.8,9.2
	c-1.1,1.1-2.1,2.3-3,3.6c-3.9,5.4-6,11.9-6,18.6V62z"/>
<circle cx="538" cy="366.3" r="25"/>
<circle cx="626" cy="366.3" r="25"/>
<circle cx="714" cy="366.3" r="25"/>
<path class="st1" d="M210,331.9H88.2L63,390.4H17.5l112.7-249.2h36.8L280,390.4h-45.2L210,331.9z M194.9,296.9l-45.9-106.8
	l-45.9,106.8H194.9z"/>
<path class="st1" d="M472.8,213.6v176.8h-43V362c-5.3,9.7-13.3,17.7-23.1,22.9c-10,5.5-21.5,8.2-34.3,8.2c-15.4,0-29.1-3.7-41-11.2
	c-11.9-7.5-21.1-18.1-27.7-31.9c-6.5-13.8-9.8-29.7-9.8-48c0-18.2,3.3-34.4,10-48.5c6.7-14.1,15.9-25.1,27.8-32.9
	c11.9-7.8,25.4-11.7,40.6-11.7c12.8,0,24.3,2.7,34.3,8.2c9.8,5.2,17.8,13.2,23.1,22.9v-26.6H472.8z M417.9,343.8
	c7.9-10,11.9-24.1,11.9-42.3c0-18.7-4-33-11.9-43.1c-7.9-10-19.3-15-34-15c-14.5,0-25.7,5.2-33.8,15.6c-8,10.4-12.1,24.8-12.1,43.2
	c0,18.2,4,32.2,12.1,42c8,9.8,19.4,14.7,34.1,14.7C398.7,358.9,409.9,353.9,417.9,343.8z"/>
<rect y="389.3" class="st2" width="984" height="2"/>
<path class="st3" d="M899.6,183.7c2.4,2.5,6,33.4,16.8,28.7c8.7-9.8-5.9-29.3-7.4-33.5L899.6,183.7z"/>
<polygon class="st4" points="886,143.8 912.5,179.3 899.9,188.9 881.2,162.4 "/>
<path d="M844.5,149.2c0,0-18,34.3-3.6,54.1s44.5,63.1,44.5,63.1c4.4,37.2,12.7,72.6,35.6,102.5l15.1-4.2L914.3,258
	c0,0-12-62.5-25.9-78.2L886,150L844.5,149.2z"/>
<path d="M843.9,199.7l-12,59.5c-10.3,6.4-31.6,70.5-39.9,92.8l16.3,6c17.9-28.3,59.3-102.7,68.8-134.3L843.9,199.7z"/>
<path class="st3" d="M884.8,28.9c-0.5,27.7-41.6,27.7-42.1,0C843.2,1.3,884.4,1.3,884.8,28.9z"/>
<path class="st3" d="M869.8,43.4c-10.6,15.9-10.3,21.5,2.4,36.1L853,65.6c0,0-13.8,0-10.8-6.6s9-20.4,9-20.4L869.8,43.4z"/>
<path class="st4" d="M859,66.8c0,0-13.8-10.2-20.4-3.6c-6.6,12.6,0,67.7,2.4,72.2c3,4.8,3.6,0.6,3,6s-3,9.6-2.4,10.2
	s46.9,5.4,46.9,5.4s-3.6-16.8-2.4-23.5s-1.2-13.2-1.2-15.6s3.6-12.6,0-20.4s-17.1-23.9-17.1-23.9l-0.9,1L859,66.8z"/>
<path class="st3" d="M824.1,196.1c1.3,3.7-9.2,37.8,4.2,37.9c13.7-6.2,7.4-33.5,7.8-38.5L824.1,196.1z"/>
<path class="st4" d="M840.9,63.8c0,0-15.6,0.6-15.6,19.2s-5.4,51.7-5.4,51.7v64.3h20.4l-3-60.7L850,98.7
	C850,98.7,866.2,73.4,840.9,63.8z"/>
<path d="M962.7,383.4L962.7,383.4c0.4-3-0.9-6.1-3.5-7.7l-22.6-11.1l-17,2.1l-4,14.4c-0.7,4.2,2.1,8.1,6.3,8.8c0.1,0,0.3,0,0.4,0.1
	l31.8,0.1C958.2,390.5,962.1,387.6,962.7,383.4z"/>
<path d="M815,388.2L815,388.2c2.5-1.8,3.6-4.9,3-7.9l-8.1-23.8L796.3,346l-13,7.3c-3.4,2.5-4.2,7.3-1.8,10.7
	c0.1,0.1,0.2,0.2,0.2,0.3l22.4,22.5C806.8,390.2,811.6,390.8,815,388.2z"/>
<path d="M839.8,12.2l5.6,17.9l48.6-0.9C893.5,12.7,879.7-0.4,863.2,0C853.9,0.3,845.3,4.8,839.8,12.2L839.8,12.2z"/>
</svg>
