<?xml version="1.0" encoding="utf-8"?>
<!-- Generator: Adobe Illustrator 24.0.2, SVG Export Plug-In . SVG Version: 6.00 Build 0)  -->
<svg version="1.1" id="a0f4c522-d0e8-404b-95f8-59a6be9d5f61"
	 xmlns="http://www.w3.org/2000/svg" xmlns:xlink="http://www.w3.org/1999/xlink" x="0px" y="0px" viewBox="0 0 985.6 661.2"
	 style="enable-background:new 0 0 985.6 661.2;" xml:space="preserve">
<style type="text/css">
	.st0{fill:#F7BB16;}
	.st1{fill:#FFFFFF;}
	.st2{fill:#3F3D56;}
	.st3{fill:#111111;}
	.st4{fill:#2F2E41;}
	.st5{fill:#E8B1B1;}
	.st6{fill:#EEEEEE;}
	.st7{fill:#DBDAE0;}
	.st8{opacity:0.1;enable-background:new    ;}
	.st9{fill:#C41721;}
	.st10{fill:#D0CDE1;}
	.st11{fill:#FF5655;}
	.st12{fill:#333333;}
</style>
<title>book_reading</title>
<path class="st0" d="M954.9,318.2c0.3,85.5-33.5,167.5-93.7,228.1c-3.3,3.3-6.7,6.5-10.1,9.7c-4.1,3.8-8.4,7.5-12.7,11.1
	c-0.8,0.7-1.7,1.4-2.5,2c-17.2,13.9-35.8,26-55.6,36c-1.2,0.6-2.3,1.2-3.5,1.8c-1.9,0.9-3.8,1.8-5.7,2.7
	c-70,32.6-149.5,38-223.2,15.2c-129.1-40.1-223-162.2-223-306.6c0-177,141-320.5,315-320.5S954.9,141.2,954.9,318.2z"/>
<path class="st1" d="M710,251l0.3,0l-1-2.2c-1.1-3.1-2.5-6-4-8.9l-28.9-63.5c-1.9-4.1-6.1-6.8-10.6-6.7l-36.6,0.6
	c-4.9,0.1-9.1,3.2-10.7,7.8l-23,69.2c-0.8,1.9-1.4,3.9-2,5.9l-0.8,2.3l0.2,0c-7.7,32.7,12.7,65.5,45.4,73.1s65.5-12.7,73.1-45.4
	C713.8,272.6,713.3,261.4,710,251L710,251z"/>
<rect x="604.6" y="216.8" transform="matrix(0.1799 -0.9837 0.9837 0.1799 308.139 804.5338)" class="st0" width="64.1" height="1.3"/>
<rect x="661.1" y="185" transform="matrix(0.9772 -0.2124 0.2124 0.9772 -31.0017 145.5193)" class="st0" width="1.3" height="64.1"/>
<path class="st2" d="M625,139.3l47-0.8c0.7,0,1.3,0.6,1.3,1.3c0,0.7-0.6,1.3-1.3,1.3l-47,0.8c-0.7,0-1.3-0.6-1.3-1.3
	C623.7,139.9,624.3,139.3,625,139.3C625,139.3,625,139.3,625,139.3L625,139.3z"/>
<path d="M625.5,149.2l47-0.8c0.7,0,1.3,0.6,1.3,1.3c0,0.7-0.6,1.3-1.3,1.3c0,0,0,0,0,0l-47,0.8c-0.7,0-1.3-0.6-1.3-1.3
	C624.2,149.8,624.8,149.2,625.5,149.2z"/>
<path d="M626,159.1l47-0.8c0.7,0,1.3,0.6,1.3,1.3c0,0.7-0.6,1.3-1.3,1.3l-47,0.8c-0.7,0-1.3-0.6-1.3-1.3
	C624.7,159.7,625.3,159.1,626,159.1L626,159.1z"/>
<path d="M648.4,129.4c-9.3,0.2-16.8,5.5-16.7,11.9l33.7-0.6C665.3,134.3,657.7,129.3,648.4,129.4z"/>
<path class="st0" d="M653.6,258.2c1.8,0.1,3.6,0.9,4.9,2.1c0.3,0.3,0.7,0.6,1,0.9c1.1,1.1,2.4,2,3.9,2.5c3.2,0.9,6.4-1.7,9.1-4.3
	l0.9,0.9c-3,2.9-6.5,5.7-10.4,4.6c-1.7-0.6-3.2-1.6-4.4-2.8c-0.3-0.3-0.7-0.6-1-0.9c-1.1-0.9-3.2-2.3-5.1-1.6
	c-0.8,0.4-1.5,0.9-2.1,1.6c-0.4,0.5-0.9,0.9-1.4,1.3c-2.1,1.5-5,1.6-7.2,0.2c-0.4-0.3-0.8-0.5-1.1-0.8c-0.6-0.6-1.3-1-2.1-1.2
	c-1.1-0.2-2.1,0.6-3.2,1.5c-1,1-2.3,1.6-3.7,1.9c0,0-0.1,0-0.1,0c-2.6,0-4.3-2.6-5.3-4.6l1.2-0.6c1.4,2.7,2.8,4,4.2,3.9
	c1.1-0.2,2.2-0.8,3-1.6c1.3-1,2.5-2,4.2-1.8c1,0.2,2,0.7,2.8,1.5c0.3,0.3,0.7,0.5,1,0.8c1.8,1.1,4,1,5.7-0.2
	c0.5-0.4,0.9-0.7,1.3-1.2c0.7-0.8,1.6-1.4,2.5-1.9C652.5,258.3,653,258.2,653.6,258.2z"/>
<rect x="648.5" y="-2.6" width="1.4" height="132"/>
<circle class="st3" cx="794.7" cy="282.6" r="19.2"/>
<path class="st4" d="M774.1,274.3c0-9.8,7.4-18.1,17.2-19.1c-10.6-1.2-20.1,6.5-21.2,17s6.5,20.1,17,21.2c1.4,0.2,2.8,0.2,4.2,0
	C781.5,292.4,774.1,284.2,774.1,274.3z"/>
<path class="st0" d="M775.5,282.6c0,0-3,13.7,15.7,19.2L775.5,282.6z"/>
<circle class="st3" cx="802.6" cy="348.7" r="64.6"/>
<path class="st5" d="M838.3,567.1c-0.8,0.7-1.7,1.4-2.5,2c-17.2,13.9-35.8,26-55.6,36c-1.2,0.6-2.3,1.2-3.5,1.8
	c-1.9,0.9-3.8,1.8-5.7,2.7l-33.1-11l0.4-7.9v0l1.4-30.2l0.5-10.3L838.3,567.1z"/>
<path d="M776.7,607c-1.9,0.9-3.8,1.8-5.7,2.7c-12.9,6-26.3,11.2-39.9,15.4c-0.1-0.2-0.1-0.4-0.1-0.6l6.9-33.9l0.4,0.2L776.7,607z"/>
<circle class="st5" cx="786.5" cy="374.4" r="42.8"/>
<path class="st5" d="M821.2,376.7c0,0,6.9,34.7,19.6,42.8l-70.5,83.2l-26.6-25.4l19.6-34.7c0,0,22-12.7,15-30L821.2,376.7z"/>
<path class="st5" d="M904.9,491.6c-12.5,19.8-27.2,38.2-43.7,54.8c-0.7-15.5-2.2-28.3-5.3-32.1c0,0,0,0,0,0l-37-11.5
	c0,0,8.1-76.3,27.7-79.7c0,0,2.8,0.6,7.3,1.9c14.3,4.3,44.9,16.4,49.3,42C904.5,475,905,483.3,904.9,491.6z"/>
<path class="st5" d="M763.4,442.6c0,0-34.7-1.2-56.6,26.6s-75.1,48.5-75.1,48.5l-132.9,52c0,0-24.3-42.8-39.3-27.7
	s27.7,53.2,47.4,48.5s138.7-40.5,138.7-40.5l94.8-42.8L763.4,442.6z"/>
<path class="st6" d="M855.9,514.3L851,556c-4.1,3.8-8.4,7.5-12.7,11.1c-0.8,0.7-1.7,1.4-2.5,2c-33.4-10.2-85.7-9.1-96-8.7
	c-1.2,0-1.8,0.1-1.8,0.1l-1.2-24.3c-11.1-3.7-14.7-11.8-14.8-20.6c-0.2-16.1,11.4-34.8,11.4-34.8c2.1-2.1,17.5-31.4,20.7-37.5
	c0.4-0.7,0.6-1.1,0.6-1.1l13.9-3.5c0,0,0,0.1-0.1,0.3c-1.2,3.5-12,34.9,6.5,36c18.3,1.1,58-50.2,63.5-57.4c0.4-0.5,0.6-0.8,0.6-0.8
	l15,8.1c-0.1,0-0.1,0-0.2,0c-9.2,2.5-17.7,24.7-17.7,24.7C812.2,491.8,854.8,513.7,855.9,514.3C855.9,514.2,855.9,514.3,855.9,514.3
	z"/>
<path class="st3" d="M788.8,324.2c-22.8,0-41.2,10.8-41.2,24c0,5.9,3.7,11.4,9.8,15.6l7.9-5.7l-2.2,9c0.9,0.4,1.8,0.8,2.8,1.2
	l11.9-13.8v17c3.6,0.6,7.3,0.9,11,0.9c22.8,0,41.2-10.8,41.2-24S811.6,324.2,788.8,324.2z"/>
<circle class="st3" cx="873.3" cy="312.6" r="19.2"/>
<path class="st4" d="M852.7,304.4c0-9.8,7.4-18.1,17.2-19.1c-0.7-0.1-1.4-0.1-2.1-0.1c-10.6,0-19.2,8.6-19.3,19.2
	c0,10.6,8.6,19.2,19.2,19.3c0.7,0,1.4,0,2.1-0.1C860.1,322.5,852.7,314.2,852.7,304.4z"/>
<path class="st0" d="M854,312.6c0,0-3,13.7,15.7,19.2L854,312.6z"/>
<ellipse class="st5" cx="831" cy="370.9" rx="3.3" ry="7.5"/>
<path class="st7" d="M462.5,400l-50.7,12.3l-0.2,0l-5.5,5l-1.6,1.4l-3.4-0.6l-6-1.1l4.2-14.2l0.8-27l-2.9-16.5l16-11
	C413.3,348.4,444.4,346.5,462.5,400z"/>
<path class="st8" d="M411.8,412.3c-0.7,1.5,0.8,0.5,0,2l-7.3,2.4l-3.3,1.5l-6-1.1l4.2-14.2l0.8-27l-2.9-16.5l16-11
	C413.3,348.4,430.4,372.7,411.8,412.3z"/>
<path class="st7" d="M522.3,361.2c0,0-66.6,30.9-93.6,35.6s-24.6,31.7-24.6,31.7L555.3,405C555.3,405,550.1,380.6,522.3,361.2z"/>
<path class="st0" d="M393.9,356c0,0,11.5,28-1.3,62.9l14.9,6.8l5.8-6.8l0.1-0.7l-15.9-1.4c0,0,13.1-35.1,2.4-59.5
	C399.9,357.3,397.5,352,393.9,356z"/>
<path class="st9" d="M613.7,563.8c-59-13.1-113.9,14-113.9,14l-0.1-0.1l-21.9-19.5l-85.4-139.4l20.8,0.1
	c57.9-34.6,139.4-29.9,139.4-29.9C587.8,428.8,613.7,563.8,613.7,563.8z"/>
<path class="st8" d="M499.7,577.7l-21.9-19.5l-85.4-139.4l20.8,0.1C413.3,418.9,496.3,528.5,499.7,577.7z"/>
<ellipse transform="matrix(0.956 -0.2932 0.2932 0.956 -109.3621 167.2129)" class="st10" cx="503" cy="448.4" rx="33.8" ry="21.5"/>
<circle class="st0" cx="876.8" cy="63.4" r="15"/>
<circle class="st0" cx="940.8" cy="135.4" r="15"/>
<polygon class="st1" points="121,346.4 121,346.4 121,346.4 "/>
<path class="st1" d="M160.9,325.9L160.9,325.9l-3.6-1.5l-15.4-6.5l-5.5-2.3l-0.4,1.1l0,0l-7.4,18.7l20.8,8.8l0.1,0.1l-1.4,3.3
	c-0.2,0.3-0.4,0.6-0.5,1c-1,2.5,0.9,5,2.6,5.6s4-0.8,5-3.2c1-2.4,0-5.6-1.7-6.3l0,0l-3.6-1.5l-12.5-4.8l7.1-18l-1.1-0.4l-7.1,18
	l-1.5-0.6l7.2-18.1l0.2,0.1l14.7,6.2l0.1,0.1l-1.4,3.3c-0.2,0.3-0.4,0.6-0.5,1c-1,2.5,0.9,5,2.6,5.6s4-0.8,5-3.2
	C163.5,329.8,162.6,326.6,160.9,325.9z"/>
<path class="st1" d="M233,371.8c-7.6-4.3-6.1-13.8-6.1-13.8c-0.2-6.2-5.3-5.3-5.3-5.3l-1.9,0.4c-0.9-0.4-1.8-0.6-2.8-0.5l-2.8,0.5
	c6.4,1.5,5.9,6.9,5.9,6.9l0.9,6.3l-16.8-6.8l1.9-4.6c0.3-0.4,0.5-0.9,0.7-1.3c1.4-3.4-1.2-6.9-3.7-7.8c-2.4-1-5.5,1-6.9,4.5
	c-1.3,3.4,0,7.7,2.3,8.8l0,0l5.1,2.1l0-0.1L233,371.8z M224.5,360.8l0.5,6c-1.9-2.7-2.8-5.9-2.5-9.2c0-1.2-0.4-2.3-1.1-3.2
	C223.5,355.7,224.7,358.2,224.5,360.8L224.5,360.8z"/>
<path class="st1" d="M104.7,282.9L104.7,282.9l-5.1-2.1l-21.2-8.2l5.3-4.8c2.2-2.9,6.2-3.6,9.2-1.5l-1.7-2.5c0,0-3.1-4.1-7.5,0.2
	c0,0-5.4,8-13.9,5.9l28.9,12.2l0.2,0.1l-2,4.6c-0.3,0.4-0.5,0.9-0.7,1.3c-1.4,3.4,1.2,6.9,3.7,7.8s5.5-1,6.9-4.5
	C108.4,288.2,107,283.9,104.7,282.9z"/>
<path class="st1" d="M182.1,256l-2,4.6c-0.3,0.4-0.5,0.9-0.7,1.3c-1.4,3.4,1.2,6.9,3.7,7.8s5.5-1,6.9-4.5c1.3-3.4,0-7.7-2.3-8.8l0,0
	l-5.1-2.1l-17.3-6.7l9.9-25l-1.5-0.6l-9.9,25l-2.1-0.8l9.9-25.1l0.3,0.1l20.4,8.6l0.2,0.1l-2,4.6c-0.3,0.4-0.5,0.9-0.7,1.3
	c-1.4,3.4,1.2,6.9,3.7,7.8s5.5-1,6.9-4.5c1.3-3.4,0-7.7-2.3-8.8l0,0l-5.1-2.1l-20.7-8.7l0,0l0,0l-0.7-0.3l-7.7-3.2L153,243.6
	l28.9,12.2L182.1,256z"/>
<path class="st1" d="M90.4,115.4L90.4,115.4l-8.7-3.6L45.3,97.6l9.2-8.2c0,0,6.1-8.5,15.9-2.6l-2.9-4.2c0,0-5.4-7.1-12.9,0.4
	c0,0-9.3,13.7-23.9,10.2l49.8,21.1l0.3,0.2l-3.4,7.9c-0.5,0.7-0.9,1.5-1.2,2.3c-2.4,5.9,2.1,11.8,6.3,13.5s9.5-1.8,11.9-7.7
	C96.7,124.6,94.5,117.2,90.4,115.4z"/>
<path class="st1" d="M117.1,234.3c-18.1-10.3-14.5-33-14.5-33c-0.5-14.7-12.6-12.7-12.6-12.7l-4.4,1c-2.1-1-4.3-1.4-6.6-1.2
	l-6.7,1.1c15.4,3.6,14.1,16.5,14.1,16.5l2.2,15l-40.2-16.2l4.6-10.9c0.6-1,1.2-2.1,1.6-3.2c3.3-8.2-2.9-16.5-8.7-18.8
	s-13.2,2.5-16.5,10.8c-3.2,8.1-0.1,18.5,5.6,21l0,0l12.1,5l0.1-0.3L117.1,234.3z M96.7,207.9l1.3,14.4c-7.6-10.1-6-22.1-6-22.1
	c-0.1-2.8-1-5.5-2.7-7.7C98,197.8,96.7,207.9,96.7,207.9L96.7,207.9z"/>
<circle class="st0" cx="910.8" cy="96.6" r="15"/>
<circle cx="245.1" cy="517.9" r="81.3"/>
<path class="st1" d="M194,524.4c7.6-9.1,21.2-10.3,30.3-2.7c1,0.8,1.9,1.7,2.7,2.7c9.5-9.1,9.9-24.2,0.8-33.8
	c-9.1-9.5-24.2-9.9-33.8-0.8c-9.5,9.1-9.9,24.2-0.8,33.8C193.4,523.9,193.7,524.2,194,524.4z"/>
<path class="st1" d="M258.5,524.4c7.6-9.1,21.2-10.3,30.3-2.7c1,0.8,1.9,1.7,2.7,2.7c9.5-9.1,9.9-24.2,0.8-33.8
	c-9.1-9.5-24.2-9.9-33.8-0.8c-9.5,9.1-9.9,24.2-0.8,33.8C258,523.9,258.3,524.2,258.5,524.4z"/>
<circle class="st2" cx="202.3" cy="499" r="8.2"/>
<circle class="st2" cx="266.9" cy="499" r="8.2"/>
<circle class="st11" cx="186.6" cy="538.2" r="9.6"/>
<circle class="st11" cx="296.5" cy="538.2" r="9.6"/>
<polygon class="st11" points="241.6,519.1 234.4,550.2 246.3,538.2 "/>
<polygon points="278.4,638.6 270.3,631.8 270.5,638.6 267.9,638.6 267.7,631.4 256.7,638.6 252.1,638.6 267.6,628.4 267,607 
	266.6,590.8 269.1,590.8 269.6,607 270.2,628.4 282.3,638.6 "/>
<polygon points="240.2,638.6 232,631.8 232.2,638.6 229.7,638.6 229.5,631.4 218.5,638.6 213.9,638.6 229.4,628.4 228.8,607 
	228.3,590.8 230.9,590.8 231.3,607 231.9,628.4 244.1,638.6 "/>
<path class="st12" d="M246.3,430.6c-2.2,0-4.2,1.7-5.5,4.4c-1.2-4-3.6-6.8-6.4-6.8c-0.2,0-0.4,0.1-0.6,0.1c-1.1-4.3-3.6-7.3-6.6-7.3
	c-4,0-7.2,5.4-7.2,12c0,6.6,3.2,12,7.2,12c0.2,0,0.4-0.1,0.6-0.1c1.1,4.3,3.6,7.3,6.6,7.3c2.2,0,4.2-1.7,5.5-4.4
	c1.2,4,3.6,6.8,6.4,6.8c4,0,7.2-5.4,7.2-12C253.5,436,250.3,430.6,246.3,430.6z"/>
<path class="st0" d="M168.9,548.7L168.9,548.7c-13.2,0-23.9-10.7-23.9-23.9l0,0v-12c0-13.2,10.7-23.9,23.9-23.9h0l0,0l0,0V548.7
	L168.9,548.7z"/>
<path class="st0" d="M321.4,488.9L321.4,488.9c13.2,0,23.9,10.7,23.9,23.9v12c0,13.2-10.7,23.9-23.9,23.9l0,0l0,0l0,0V488.9
	L321.4,488.9z"/>
<path class="st0" d="M334,514.7h-3.8c0-48.1-39.1-87.2-87.2-87.2c-48.1,0-87.2,39.1-87.2,87.2h-3.8c0-50.2,40.8-91,91-91
	C293.1,423.7,334,464.5,334,514.7z"/>
<path class="st0" d="M926.4,583.8c-8.4,31-37.1,50.2-37.1,50.2s-15.1-31-6.7-62s37.1-50.2,37.1-50.2S934.8,552.8,926.4,583.8z"/>
<path class="st6" d="M914.1,577.1c-23,22.4-25.8,56.8-25.8,56.8s34.5-1.9,57.5-24.3s25.8-56.8,25.8-56.8S937.1,554.7,914.1,577.1z"
	/>
<path d="M92.6,617.5c0,0,1.5-31.2,32-27.5"/>
<circle class="st0" cx="90.3" cy="577.7" r="15.3"/>
<rect x="88.2" y="590.5" width="4.3" height="51.8"/>
</svg>
