<?xml version="1.0" encoding="utf-8"?>
<!-- Generator: Adobe Illustrator 24.0.2, SVG Export Plug-In . SVG Version: 6.00 Build 0)  -->
<svg version="1.1" id="b7fb801c-b669-4d81-9566-e146c3c40642"
	 xmlns="http://www.w3.org/2000/svg" xmlns:xlink="http://www.w3.org/1999/xlink" x="0px" y="0px" viewBox="0 0 886.1 652.4"
	 style="enable-background:new 0 0 886.1 652.4;" xml:space="preserve">
<style type="text/css">
	.st0{fill:#F1F1F1;}
	.st1{fill:#E6E6E6;}
	.st2{fill:#FFFFFF;}
	.st3{fill:#E2E2E2;}
	.st4{fill:#F8BA17;}
	.st5{fill:#9F616A;}
	.st6{fill:#2F2E41;}
	.st7{fill:#A0616A;}
	.st8{fill:#C41721;}
	.st9{fill:#CBCBCB;}
</style>
<path class="st0" d="M754.1,650.3v-72.3C754.1,577.9,782.2,629.2,754.1,650.3z"/>
<path class="st0" d="M755.8,650.2l-53.3-48.9C702.5,601.3,759.4,615.2,755.8,650.2z"/>
<polygon class="st1" points="191.2,0 63.7,0 0,110.4 63.7,220.8 191.2,220.8 254.9,110.4 "/>
<path class="st2" d="M70.9,208.4H184l56.6-98l-56.6-98H70.9l-56.6,98L70.9,208.4z"/>
<circle class="st3" cx="69.5" cy="81.1" r="5.2"/>
<circle class="st3" cx="69.5" cy="110.4" r="5.2"/>
<circle class="st3" cx="69.5" cy="139.6" r="5.2"/>
<rect x="91.4" y="77" class="st3" width="99.2" height="8.4"/>
<rect x="91.4" y="106.2" class="st3" width="99.2" height="8.4"/>
<rect x="91.4" y="135.4" class="st3" width="99.2" height="8.4"/>
<polygon class="st1" points="822.4,0 694.9,0 631.2,110.4 694.9,220.8 822.4,220.8 886.1,110.4 "/>
<path class="st2" d="M702.1,208.4h113.2l56.6-98l-56.6-98H702.1l-56.6,98L702.1,208.4z"/>
<circle class="st3" cx="700.7" cy="81.1" r="5.2"/>
<circle class="st3" cx="700.7" cy="110.4" r="5.2"/>
<circle class="st3" cx="700.7" cy="139.6" r="5.2"/>
<rect x="722.6" y="77" class="st3" width="99.2" height="8.4"/>
<rect x="722.6" y="106.2" class="st3" width="99.2" height="8.4"/>
<rect x="722.6" y="135.4" class="st3" width="99.2" height="8.4"/>
<polygon class="st1" points="506.2,1.1 379.9,1.1 316.8,110.4 379.9,219.7 506.2,219.7 569.3,110.4 "/>
<path class="st2" d="M387,207.4h112.1l56-97l-56-97H387l-56,97L387,207.4z"/>
<circle class="st4" cx="385.7" cy="81.4" r="5.2"/>
<circle class="st4" cx="385.7" cy="110.4" r="5.2"/>
<circle class="st4" cx="385.7" cy="139.3" r="5.2"/>
<rect x="407.4" y="77.3" class="st4" width="98.2" height="8.3"/>
<rect x="407.4" y="106.2" class="st4" width="98.2" height="8.3"/>
<rect x="407.4" y="135.2" class="st4" width="98.2" height="8.3"/>
<polygon class="st5" points="550.7,639.7 538.4,639.7 532.6,592.4 550.7,592.4 "/>
<path class="st6" d="M553.8,651.6l-39.5,0v-0.5c0-8.5,6.9-15.4,15.4-15.4h0l24.1,0L553.8,651.6z"/>
<polygon class="st5" points="664.7,639.7 652.4,639.7 646.6,592.4 664.7,592.4 "/>
<path class="st6" d="M667.8,651.6l-39.5,0v-0.5c0-8.5,6.9-15.4,15.4-15.4h0l24.1,0L667.8,651.6z"/>
<path class="st6" d="M545.8,399.8c0,0-10.3,27.9-8.8,39.7s-10.3,94.1-8.8,101.4c1.5,7.4-1.5,44.1,0,50c1.5,5.9-4.1,12.9-1.2,18.8
	c2.9,5.9,7.1,18,7.1,18l19.1-1.5l2.9-16.2c0,0,8.8-1.5,7.4-10.3c-1.5-8.8,7.4-67.6,7.4-67.6l25-82.3l35.3,75c0,0,1.5,52.9,5.9,58.8
	c4.4,5.9-4.4,22.1,0,27.9c4.4,5.9,8.8,16.2,8.8,16.2h22.1v-11.8c0,0,13.2-7.4,0-29.4L658.9,454l-8.8-60.3L545.8,399.8z"/>
<circle class="st7" cx="600.6" cy="187.5" r="27.5"/>
<path class="st6" d="M577.2,185.6c1.9,5,3.9,9.9,5.8,14.9c2.4,6.1,5.1,12.6,10.7,16c6.9,4.2,16.1,2.1,22.8-2.4
	c16.2-11.1,20.4-33.2,9.4-49.4c-5.8-8.6-15.1-14.1-25.4-15.3l-0.3,5l-6.1-5.1c-1.6,2.8-5.3,3.8-8.1,2.1c-0.4-0.2-0.8-0.5-1.1-0.8
	c1.6,3.3-0.2,7.4-2.9,9.9c-3.3,3.1-12.7,6.9-12.3,12.5C570,176.6,575.7,181.7,577.2,185.6z"/>
<path class="st5" d="M676.2,440.4c3.6-5.3,2.1-12.6-3.2-16.1c-0.6-0.4-1.2-0.7-1.8-1l0.5-26.6l-16.1-4.3l-0.2,37.5
	c-2.2,6.1,0.9,12.8,7,15C667.5,446.8,673.2,444.9,676.2,440.4L676.2,440.4z"/>
<path class="st8" d="M621,231.9c0,0-21.3-10.6-41.4-3.5s-30.7,15.4-30.7,15.4l13,68.6l-17.7,92.2c0,0,91-7.1,99.3,0s8.3-8.3,8.3-8.3
	l-7.1-87.5l13-55.6L621,231.9z"/>
<path class="st5" d="M531.2,442c4.9-4.1,5.6-11.4,1.5-16.4c-0.4-0.5-0.9-1-1.4-1.5l8-25.3l-14.2-8.6l-10.8,35.9
	c-3.8,5.2-2.7,12.5,2.5,16.3C521.1,445.6,527,445.4,531.2,442z"/>
<path class="st8" d="M557.1,243.7h-8.3c0,0-13,8.3-13,20.1S517,413.9,517,413.9l20.1,3.5l17.7-96.9l13-26L557.1,243.7z"/>
<path class="st8" d="M635.2,253.2h22.5c0,0,7.1,7.1,10.6,23.6s7.1,81.6,7.1,81.6l-2.4,59.1h-17.7l-2.4-76.8L641.1,291L635.2,253.2z"
	/>
<path class="st9" d="M804.8,652.4h-381c-0.6,0-1-0.4-1-1c0-0.6,0.4-1,1-1h381c0.6,0,1,0.4,1,1C805.8,651.9,805.4,652.4,804.8,652.4z
	"/>
</svg>
