<?xml version="1.0" encoding="utf-8"?>
<!-- Generator: Adobe Illustrator 24.0.2, SVG Export Plug-In . SVG Version: 6.00 Build 0)  -->
<svg version="1.1" id="a728da0d-a6bd-48cc-8386-3b36fd525f7c"
	 xmlns="http://www.w3.org/2000/svg" xmlns:xlink="http://www.w3.org/1999/xlink" x="0px" y="0px" viewBox="0 0 984 393.2"
	 style="enable-background:new 0 0 984 393.2;" xml:space="preserve">
<style type="text/css">
	.st0{fill:#C41921;}
	.st1{fill:#3F3D56;}
	.st2{fill:#F8BA17;}
	.st3{fill:#CCCCCC;}
	.st4{fill:#8E8E8E;}
</style>
<path class="st0" d="M605.5,239.2H483.6l-25.2,58.5H413L525.7,48.5h36.8l113,249.2h-45.2L605.5,239.2z M590.3,204.2L544.5,97.4
	l-45.9,106.8H590.3z"/>
<path class="st0" d="M884,122.1v176.8h-43v-28.4c-5.3,9.7-13.3,17.7-23.1,22.9c-10,5.5-21.5,8.2-34.3,8.2c-15.4,0-29.1-3.7-41-11.2
	c-11.9-7.5-21.1-18.1-27.7-31.9c-6.5-13.8-9.8-29.7-9.8-48c0-18.2,3.3-34.4,10-48.5c6.7-14.1,15.9-25.1,27.8-32.9
	c11.9-7.8,25.4-11.7,40.6-11.7c12.8,0,24.3,2.7,34.3,8.2c9.8,5.2,17.8,13.2,23.1,22.9v-26.6H884V122.1z M829.1,252.3
	c7.9-10,11.9-24.1,11.9-42.3c0-18.7-4-33-11.9-43.1c-7.9-10-19.3-15-34-15c-14.5,0-25.7,5.2-33.8,15.6c-8,10.4-12.1,24.8-12.1,43.2
	c0,18.2,4,32.2,12.1,42c8,9.8,19.4,14.7,34.1,14.7C809.9,267.4,821.1,262.4,829.1,252.3z"/>
<path id="b687333e-18de-4d8a-8832-7c3edcdf36cf" class="st1" d="M320.9,19.1c-2.3-5.5-7.6-9-13.6-9.1H36.5
	c-8.1,0-14.7,6.6-14.7,14.7v342.6c0,8.1,6.6,14.7,14.7,14.7h270.8c8.1,0,14.7-6.6,14.7-14.7V24.7C322,22.8,321.6,20.9,320.9,19.1
	L320.9,19.1z M318.7,367.3c0,6.3-5.1,11.4-11.4,11.4H36.5c-6.3,0-11.4-5.1-11.4-11.4V24.7c0-6.3,5.1-11.4,11.4-11.4h270.8
	c4.7,0,8.9,2.9,10.6,7.2c0.2,0.4,0.3,0.9,0.4,1.3c0.3,1,0.4,2,0.4,2.9L318.7,367.3z"/>
<path id="eca15e8c-c9ce-4149-9dd0-d1ea6c849243" class="st1" d="M264.7,101.3h-81.6c-3.6,0-6.5-2.9-6.5-6.5c0-3.6,2.9-6.5,6.5-6.5
	h81.6c3.6,0,6.5,2.9,6.5,6.5C271.2,98.4,268.3,101.3,264.7,101.3z"/>
<path id="b9f37388-2aff-4ffa-881f-18e269279f19" class="st1" d="M264.7,135.6h-81.6c-3.6,0-6.5-2.9-6.5-6.5c0-3.6,2.9-6.5,6.5-6.5
	h81.6c3.6,0,6.5,2.9,6.5,6.5C271.2,132.7,268.3,135.6,264.7,135.6z"/>
<path id="ab29eed0-504d-400c-b1ab-2256c8d671ed" class="st2" d="M140.1,165H80.5c-4.1,0-7.3-3.3-7.3-7.3V87.3c0-4.1,3.3-7.3,7.3-7.3
	h59.6c4.1,0,7.3,3.3,7.3,7.3v70.4C147.5,161.8,144.2,165,140.1,165z"/>
<path id="fa5fec34-0c55-4409-8f72-9659063fc84a" class="st3" d="M264.1,205.7H79.7c-3.6,0-6.5-2.9-6.5-6.5c0-3.6,2.9-6.5,6.5-6.5
	h184.4c3.6,0,6.5,2.9,6.5,6.5C270.6,202.8,267.7,205.7,264.1,205.7z"/>
<path id="a43251d6-16e2-4557-b881-b3d221f9e0a0" class="st3" d="M264.1,240H79.7c-3.6,0-6.5-2.9-6.5-6.5c0-3.6,2.9-6.5,6.5-6.5
	h184.4c3.6,0,6.5,2.9,6.5,6.5C270.6,237.1,267.7,240,264.1,240z"/>
<path id="b1a9b5d8-150e-43cf-a101-e2528d51164c" class="st3" d="M264.1,274.3H79.7c-3.6,0-6.5-2.9-6.5-6.5c0-3.6,2.9-6.5,6.5-6.5
	h184.4c3.6,0,6.5,2.9,6.5,6.5C270.6,271.3,267.7,274.3,264.1,274.3z"/>
<path id="fb13d629-1d1d-4a08-ba0c-67ba8ed3b5d8" class="st3" d="M264.1,308.5H79.7c-3.6,0-6.5-2.9-6.5-6.5c0-3.6,2.9-6.5,6.5-6.5
	h184.4c3.6,0,6.5,2.9,6.5,6.5C270.6,305.6,267.7,308.5,264.1,308.5z"/>
<path id="f81dc734-d8e2-4a40-b2eb-9530c4619ee2" class="st3" d="M264.1,342.8H79.7c-3.6,0-6.5-2.9-6.5-6.5c0-3.6,2.9-6.5,6.5-6.5
	h184.4c3.6,0,6.5,2.9,6.5,6.5C270.6,339.9,267.7,342.8,264.1,342.8z"/>
<circle class="st4" cx="725" cy="344.1" r="25"/>
<circle class="st4" cx="813" cy="344.1" r="25"/>
<circle class="st4" cx="901" cy="344.1" r="25"/>
</svg>
