<?xml version="1.0" encoding="utf-8"?>
<!-- Generator: Adobe Illustrator 24.0.2, SVG Export Plug-In . SVG Version: 6.00 Build 0)  -->
<svg version="1.1" id="a5daebb5-dfc9-484a-9f95-ea2bbadd0c20"
	 xmlns="http://www.w3.org/2000/svg" xmlns:xlink="http://www.w3.org/1999/xlink" x="0px" y="0px" viewBox="0 0 767 496.5"
	 style="enable-background:new 0 0 767 496.5;" xml:space="preserve">
<style type="text/css">
	.st0{fill:#E6E6E6;}
	.st1{fill:#A0616A;}
	.st2{fill:#2F2E41;}
	.st3{fill:#F8BA17;}
	.st4{fill:#C41721;}
	.st5{fill:#3F3D56;}
	.st6{fill:#FFFFFF;}
</style>
<path class="st0" d="M77.2,367.7c0.9,41.2,5.5,83.6,15.3,125.5c0.2,0.9,0.4,1.9,0.7,2.8h57c-0.1-0.8-0.1-1.8-0.2-2.8
	c-3.8-60.7-25.7-430,0.5-493.2C148.2,5.1,72.8,174.8,77.2,367.7z"/>
<path class="st0" d="M81.5,493.2c0.5,0.9,1,1.9,1.5,2.8h42.8c-0.3-0.8-0.7-1.7-1.1-2.8c-7.1-17.7-28-70.7-47.4-125.5
	c-20.9-59-40-120.2-38.4-142.4C38.3,230.3,23.9,382.6,81.5,493.2z"/>
<path class="st1" d="M598.6,139.2l-3.6,27.6l-2.2,16.8l-1.6,12.5l-47.6,48.4l-13.9,9c-5,3.2-11.7,1.8-14.9-3.2s-1.8-11.7,3.2-14.9
	c0.7-0.5,1.5-0.8,2.3-1.1l15.3-5.3l32.2-41.9l1.5-8.2l19.2-64.7c2-3.3,3.3,8.7,6,6c0.8,0.9,6.3-10,7-9
	C608.2,119.9,600.1,127.8,598.6,139.2z"/>
<polygon class="st1" points="606.9,475.7 592.1,475.7 592.1,331.5 625.8,330.8 "/>
<polygon class="st1" points="678.3,475.7 693.2,475.7 693.2,331.5 659.5,330.8 "/>
<circle class="st1" cx="625.1" cy="61.1" r="24.9"/>
<path class="st1" d="M667.6,96.8l-4,24.3l-47.2,2.7V94.6c9.7-4.2,7.5-10.3,0-17.3l30.3-8.8c1.1,10,2.9,19.4,11.3,21.7
	c3.7,0.9,6.9,3.1,9.2,6.1L667.6,96.8z"/>
<path class="st2" d="M699.2,334.8l-48.9,1.7l-6.1-37.8l-8.4,36.1l-49.9,1.3l4-66.1l93.7-22.2C694.8,275.5,700.1,305.1,699.2,334.8z"
	/>
<path class="st2" d="M599.9,495.8l-31.6-0.3c-5.5,1.4-11.1-2-12.4-7.5c-0.2-0.8-0.3-1.6-0.3-2.5l0,0c0-3.9,2.3-7.5,5.8-9.2l7.2-3.5
	l23.4-16l16.9,4.7l3.2,14.5C614.1,484.9,608.7,493.6,599.9,495.8z"/>
<path class="st2" d="M684.9,495.6l-31.6-0.3c-5.5,1.4-11.1-2-12.4-7.5c-0.2-0.8-0.3-1.6-0.3-2.5l0,0c0-3.9,2.3-7.5,5.8-9.2l7.2-3.5
	l23.4-16l16.9,4.7l3.2,14.5C699,484.7,693.6,493.5,684.9,495.6z"/>
<path class="st2" d="M614.3,51.9c-9.1,6.3-20.9-2.4-17.7-13c2.7-8.7,9.5-17.2,25.8-16.9c33,0.7,37.3,33.7,26.4,46.9
	c0,0-1.5-20.6-4.8-17.2c-3.4,3.4-8.8,1.3-8.8,1.3s2.7-12.8-10.1-7.4C621.3,47.3,617.7,49.4,614.3,51.9z"/>
<path class="st3" d="M686.4,253.2c-27,21.9-59,29.8-97.1,20.2c9.7-48.8,7.8-100.7,0-154.1c0-7.2,4.1-13.7,10.5-16.9l17.1-8.3
	c15.2,21.6,29.2,16.1,42.5-4l18.9,6.9c5.3,1.9,8.8,6.9,8.7,12.5C684.5,163.8,682.9,215.4,686.4,253.2z"/>
<path class="st3" d="M604.2,191.9l-8.4-1.7l-2.9-0.6l-23.6-4.9l-10.9-2.2l18.5-54c2.3-6.7,6.1-12.8,11.1-17.7
	c3.9-3.9,8.5-7,13.5-9.2v0.1L604.2,191.9z"/>
<path class="st1" d="M692.5,246.5l-7.9,22.4c-2.1,5.9,1,12.5,7,14.6c0.9,0.3,1.9,0.5,2.9,0.6l0,0c6.3,0.5,11.8-4.2,12.3-10.5
	c0,0,0-0.1,0-0.1l1.9-27l-2-74.2l-20.9,2L692.5,246.5z"/>
<path class="st3" d="M719.5,171L675,183.8l-0.7-88.3l0,0c14.5,0.8,26.9,10.7,30.9,24.7L719.5,171z"/>
<path class="st4" d="M156.4,137.3c-2.5,0-4.5,2-4.5,4.5v94c0,2.5,2,4.5,4.5,4.5h365c2.5,0,4.5-2,4.5-4.5v-94c0-2.5-2-4.5-4.5-4.5
	H156.4z"/>
<path class="st5" d="M521.4,496.3h-365c-4.1,0-7.5-3.4-7.5-7.5v-346c0-4.1,3.4-7.5,7.5-7.5h365c4.1,0,7.5,3.4,7.5,7.5v346
	C528.9,493,525.6,496.3,521.4,496.3z M156.4,138.3c-2.5,0-4.5,2-4.5,4.5v346c0,2.5,2,4.5,4.5,4.5h365c2.5,0,4.5-2,4.5-4.5v-346
	c0-2.5-2-4.5-4.5-4.5H156.4z"/>
<path id="a412c548-e719-4eea-a05b-cd0e7020a11d" class="st0" d="M273.8,279c-3.3,0.1-5.9,2.8-5.8,6c0.1,3.2,2.6,5.8,5.8,5.8h204.1
	c3.3,0.1,6-2.6,6-5.8c0.1-3.3-2.6-6-5.8-6l0,0c-0.1,0-0.1,0-0.2,0H273.8z"/>
<path id="b78b0a84-c378-4508-9336-e77aabaafae0" class="st0" d="M273.8,310c-3.3,0.1-5.9,2.8-5.8,6c0.1,3.2,2.6,5.8,5.8,5.8h204.1
	c3.3,0.1,6-2.6,6-5.8c0.1-3.3-2.6-6-5.8-6c-0.1,0-0.1,0-0.2,0H273.8z"/>
<path id="e32b0e90-8114-4582-9747-2684e16f8e14" class="st0" d="M273.8,341c-3.3,0.1-5.9,2.8-5.8,6c0.1,3.2,2.6,5.8,5.8,5.8h204.1
	c3.3,0,6-2.6,6-5.9c0-3.3-2.6-6-5.8-6c-0.1,0-0.1,0-0.2,0H273.8z"/>
<path id="b06bb5c2-a5f4-47ff-92f8-77ef735fdd34" class="st0" d="M273.8,372c-3.3,0.1-5.9,2.8-5.8,6c0.1,3.2,2.6,5.8,5.8,5.8h204.1
	c3.3,0,6-2.6,6-5.9c0-3.3-2.6-6-5.8-6c-0.1,0-0.1,0-0.2,0H273.8z"/>
<path id="b8811759-8962-48e4-84dc-33129b489fa6" class="st0" d="M273.8,403c-3.3,0.1-5.9,2.8-5.8,6c0.1,3.2,2.6,5.8,5.8,5.8h204.1
	c3.3,0,6-2.6,6-5.9c0-3.3-2.6-6-5.8-6c-0.1,0-0.1,0-0.2,0H273.8z"/>
<path id="b77aa8cf-94af-4633-82e9-cca59aedf566" class="st0" d="M273.8,434c-3.3,0.1-5.9,2.8-5.8,6c0.1,3.2,2.6,5.8,5.8,5.8h204.1
	c3.3,0,6-2.6,6-5.9c0-3.3-2.6-6-5.8-6c-0.1,0-0.1,0-0.2,0H273.8z"/>
<path class="st6" d="M227.8,188.8c0,13.3-10.7,24-24,24s-24-10.7-24-24s10.7-24,24-24c13.2-0.1,23.9,10.6,24,23.8
	C227.8,188.7,227.8,188.8,227.8,188.8z"/>
<path id="ebe986c1-6388-4a4d-87c0-ea526f0f496e" class="st6" d="M246.9,169.9c-3.3,0.1-5.9,2.8-5.8,6c0.1,3.2,2.6,5.8,5.8,5.8H396
	c3.3,0,6-2.6,6-5.9c0-3.3-2.6-6-5.8-6c-0.1,0-0.1,0-0.2,0H246.9z"/>
<path id="a7d58542-4d48-481b-9cd8-4bec86616530" class="st6" d="M246.9,195.9c-3.3,0.1-5.9,2.8-5.8,6c0.1,3.2,2.6,5.8,5.8,5.8H492
	c3.3,0,6-2.6,6-5.9c0-3.3-2.6-6-5.8-6c-0.1,0-0.1,0-0.2,0H246.9z"/>
<path class="st0" d="M235.5,296c-6.1,0-11-4.9-11-11s4.9-11,11-11s11,4.9,11,11l0,0C246.5,291.1,241.6,296,235.5,296z M235.5,276
	c-5,0-9,4-9,9c0,5,4,9,9,9s9-4,9-9C244.5,280,240.5,276,235.5,276z"/>
<path class="st0" d="M235.5,327c-6.1,0-11-4.9-11-11s4.9-11,11-11s11,4.9,11,11l0,0C246.5,322.1,241.6,327,235.5,327z M235.5,307
	c-5,0-9,4-9,9s4,9,9,9s9-4,9-9C244.5,311,240.5,307,235.5,307z"/>
<path class="st0" d="M235.5,358c-6.1,0-11-4.9-11-11s4.9-11,11-11s11,4.9,11,11l0,0C246.5,353,241.6,358,235.5,358z M235.5,338
	c-5,0-9,4-9,9s4,9,9,9s9-4,9-9C244.5,342,240.5,338,235.5,338z"/>
<path class="st0" d="M235.5,389c-6.1,0-11-4.9-11-11s4.9-11,11-11s11,4.9,11,11l0,0C246.5,384,241.6,389,235.5,389z M235.5,369
	c-5,0-9,4-9,9s4,9,9,9s9-4,9-9C244.5,373,240.5,369,235.5,369z"/>
<path class="st0" d="M235.5,420c-6.1,0-11-4.9-11-11s4.9-11,11-11s11,4.9,11,11C246.5,415,241.6,420,235.5,420z M235.5,400
	c-5,0-9,4-9,9s4,9,9,9s9-4,9-9C244.5,404,240.5,400,235.5,400z"/>
<path class="st0" d="M235.5,451c-6.1,0-11-4.9-11-11s4.9-11,11-11s11,4.9,11,11C246.5,446,241.6,451,235.5,451z M235.5,431
	c-5,0-9,4-9,9s4,9,9,9s9-4,9-9C244.5,435,240.5,431,235.5,431z"/>
<circle class="st3" cx="235.5" cy="285" r="5"/>
<circle class="st3" cx="235.5" cy="347" r="5"/>
<circle class="st3" cx="235.5" cy="378" r="5"/>
<rect y="494.5" class="st2" width="767" height="2"/>
</svg>
