<?xml version="1.0" encoding="utf-8"?>
<!-- Generator: Adobe Illustrator 24.0.2, SVG Export Plug-In . SVG Version: 6.00 Build 0)  -->
<svg version="1.1" id="ae7b1516-7baa-4f85-8821-b2a97daeda5e"
	 xmlns="http://www.w3.org/2000/svg" xmlns:xlink="http://www.w3.org/1999/xlink" x="0px" y="0px" viewBox="0 0 738.2 557.7"
	 style="enable-background:new 0 0 738.2 557.7;" xml:space="preserve">
<style type="text/css">
	.st0{fill:#C31722;}
	.st1{fill:#FFFFFF;}
	.st2{fill:#E6E6E6;}
	.st3{fill:#A0616A;}
	.st4{fill:#2F2E41;}
	.st5{fill:#F8BA17;}
	.st6{fill:#CCCCCC;}
</style>
<path id="a9afa624-d143-4da3-9790-afb66062e65a" class="st0" d="M304.3,386.4c0,19.2-14.9,34.9-33.4,34.9s-33.4-15.6-33.4-34.9
	c0-0.4,0-0.9,0-1.3c0.3-19.2,15.6-34.6,34-34.2S304.6,367.2,304.3,386.4L304.3,386.4z"/>
<path id="e3bc7ff1-d70c-4de9-8a31-9e1cd8f5d93e" class="st1" d="M259.1,401.9l-9.6-12.8l2.3-1.7l7.8,10.4l30.8-25.2l1.8,2.2
	L259.1,401.9z"/>
<rect id="a7b62467-cb6d-4a33-bede-3daf66fae9b8" y="555.7" class="st2" width="738.2" height="2"/>
<g id="a0df80b4-37f6-4e81-b192-ad058c9b46d3">
	<path id="ab0ed44f-d533-4992-a1b3-ca9ac72248ac" class="st3" d="M486.1,196c0.7,0.3,1.4,0.7,2,1.1l63.2-27l2.3-16.6l25.2-0.2
		l-1.5,38.2l-83.4,22c-0.2,0.6-0.4,1.1-0.6,1.7c-3.4,7.2-12,10.3-19.2,6.9c-7.2-3.4-10.3-12-6.9-19.2
		C470.4,195.9,478.9,192.7,486.1,196L486.1,196z"/>
	<path id="e96706e1-851e-4da2-ad9b-ad313a8c64fc" class="st3" d="M587.9,541.7h-17.3l-8.2-66.6h25.5L587.9,541.7z"/>
	<path id="b540b71d-0f03-4ed3-b276-b3415efc1443" class="st4" d="M558.3,536.8h33.3v21h-54.3C537.3,546.2,546.7,536.8,558.3,536.8
		L558.3,536.8L558.3,536.8z"/>
	<path id="b87c34d6-a0a3-40d8-a436-08cd71fc342e" class="st3" d="M655,536.8l-17.2,1.7l-14.7-65.5l25.4-2.5L655,536.8z"/>
	<path id="bb56473f-8578-4371-8d17-16b3f8ffc95c" class="st4" d="M625.1,534.8l33.1-3.3l2.1,20.9l-54,5.3
		C605.1,546.2,613.5,536,625.1,534.8L625.1,534.8z"/>
	<circle id="b06ede21-2df7-4399-95f3-667c473f6547" class="st3" cx="592.7" cy="48.3" r="34.6"/>
	<path id="e3edd339-fa60-4375-a5a7-b8711a5f77a0" class="st4" d="M566.7,528.3c-3.1,0-5.7-2.2-6.2-5.2
		c-8.9-49.6-38.1-211.8-38.8-216.3c0-0.1,0-0.2,0-0.3v-12.1c0-0.4,0.1-0.9,0.4-1.2l3.9-5.4c0.4-0.5,1-0.9,1.6-0.9
		c22-1,94-4.1,97.5,0.3l0,0c3.5,4.4,2.3,17.6,2,20.2l0,0.3l32.4,207c0.5,3.4-1.8,6.7-5.2,7.2l-20.2,3.3c-3.1,0.5-6.1-1.4-7.1-4.4
		c-6.3-20-27.2-87.2-34.5-113.2c-0.1-0.4-0.5-0.6-0.8-0.5c-0.3,0.1-0.6,0.4-0.5,0.7c0.4,24.8,1.2,88,1.5,109.9l0,2.4
		c0,3.3-2.5,6.1-5.8,6.4l-19.5,1.8C567.1,528.2,566.9,528.3,566.7,528.3z"/>
	<path id="fafafea0-d187-42ce-9adc-60692d5c21c2" class="st5" d="M570.7,96.4c-6,3.6-9.6,10.2-11.7,16.9
		c-3.8,12.4-6.1,25.3-6.9,38.2l-2.2,38.9l-27.1,103c23.5,19.9,37.1,15.4,68.7-0.9c31.6-16.3,35.2,5.4,35.2,5.4l6.3-87.7l9-95.8
		c-2-2.4-4.3-4.7-6.8-6.6c-16.9-13.2-39-17.8-59.8-12.7L570.7,96.4z"/>
	<path id="bcb42d09-5dc7-4cce-9178-bbabc9608de0" class="st3" d="M561.9,216.8c0.7,0.3,1.4,0.6,2.1,1l62.4-31.3l1-16.9l25.8-1.8
		l1.4,38.6L571.2,234c-1.9,8-9.8,12.9-17.8,11c-8-1.9-12.9-9.8-11-17.8c1.9-8,9.8-12.9,17.8-11C560.8,216.4,561.3,216.5,561.9,216.8
		L561.9,216.8z"/>
	<path id="a6b68414-708f-47b2-ba8b-69f9e74523ce" class="st5" d="M641.7,115c15.4,5.4,18.1,64.2,18.1,64.2
		c-18.1-9.9-39.8,6.3-39.8,6.3s-4.5-15.4-9.9-35.2c-3.3-11.4-0.6-23.6,7.2-32.5C617.3,117.7,626.3,109.6,641.7,115z"/>
	<path id="bcacc9ce-a4f2-4033-9198-64d9603f2d9b" class="st4" d="M623.7,57.4c-4.3-3.4-10.2,2.8-10.2,2.8l-3.4-31
		c0,0-21.5,2.6-35.3-0.9s-15.9,12.5-15.9,12.5c-0.7-6.4-0.9-12.9-0.4-19.4c0.9-7.8,12.1-15.5,31.9-20.7S620.4,18,620.4,18
		C634.2,24.9,628,60.9,623.7,57.4z"/>
</g>
<path class="st6" d="M161.1,45.6c-1.7,0-3.1,1.4-3.1,3.1c0,1.7,1.4,3.1,3.1,3.1H388c1.7,0,3.1-1.4,3.1-3.1c0-1.7-1.4-3.1-3.1-3.1
	l0,0H161.1z"/>
<path class="st6" d="M161.1,64.2c-1.7,0-3.1,1.4-3.1,3.1c0,1.7,1.4,3.1,3.1,3.1l0,0h143.4c1.7,0,3.1-1.4,3.1-3.1
	c0-1.7-1.4-3.1-3.1-3.1l0,0H161.1z"/>
<path id="baa6ea24-e79a-410b-95a0-90b7a92ae1c1" class="st0" d="M385.1,21.8c0,7.5-5.9,13.6-13.1,13.6S359,29.3,359,21.8
	c0-0.2,0-0.3,0-0.5c0.1-7.5,6.1-13.5,13.3-13.4S385.3,14.3,385.1,21.8L385.1,21.8z"/>
<path id="a0820f47-ad40-463a-872c-13bb80005143" class="st1" d="M367.5,27.9l-3.8-5l0.9-0.7l3.1,4.1l12.1-9.9l0.7,0.9L367.5,27.9z"
	/>
<path class="st6" d="M161.1,159.6c-1.7,0-3.1,1.4-3.1,3.1c0,1.7,1.4,3.1,3.1,3.1H388c1.7,0,3.1-1.4,3.1-3.1c0-1.7-1.4-3.1-3.1-3.1
	l0,0H161.1z"/>
<path class="st6" d="M161.1,178.2c-1.7,0-3.1,1.4-3.1,3.1c0,1.7,1.4,3.1,3.1,3.1h143.4c1.7,0,3.1-1.4,3.1-3.1c0-1.7-1.4-3.1-3.1-3.1
	l0,0H161.1z"/>
<path id="b63fc892-67cf-40d0-9003-f173040a559c" class="st0" d="M384.1,135.8c0,7.5-5.9,13.6-13.1,13.6s-13.1-6.1-13.1-13.6
	c0-0.2,0-0.3,0-0.5c0.1-7.5,6.1-13.5,13.3-13.4S384.3,128.3,384.1,135.8L384.1,135.8z"/>
<path id="b8e61bbe-38fc-40ac-ac8c-5bb63bac7af2" class="st1" d="M366.5,141.9l-3.8-5l0.9-0.7l3.1,4.1l12.1-9.9l0.7,0.9L366.5,141.9z
	"/>
<path class="st6" d="M161.1,273.6c-1.7,0-3.1,1.4-3.1,3.1c0,1.7,1.4,3.1,3.1,3.1H388c1.7,0,3.1-1.4,3.1-3.1c0-1.7-1.4-3.1-3.1-3.1
	l0,0H161.1z"/>
<path class="st6" d="M161.1,292.2c-1.7,0-3.1,1.4-3.1,3.1c0,1.7,1.4,3.1,3.1,3.1h143.4c1.7,0,3.1-1.4,3.1-3.1s-1.4-3.1-3.1-3.1l0,0
	H161.1z"/>
<path id="f67391c6-f0f4-4d09-a78c-675b0edf0c3b" class="st0" d="M384.1,249.8c0,7.5-5.9,13.6-13.1,13.6s-13.1-6.1-13.1-13.6
	c0-0.2,0-0.3,0-0.5c0.1-7.5,6.1-13.5,13.3-13.4S384.3,242.3,384.1,249.8L384.1,249.8z"/>
<path id="e94ecbaf-2ca7-4fd5-871d-ab097a8f2c0d" class="st1" d="M366.5,255.9l-3.8-5l0.9-0.7l3.1,4.1l12.1-9.9l0.7,0.9L366.5,255.9z
	"/>
</svg>
